<svg width="32" height="32" viewBox="0 0 32 32" fill="none" xmlns="http://www.w3.org/2000/svg">
<path d="M16 32C24.8366 32 32 24.8366 32 16C32 7.16344 24.8366 0 16 0C7.16344 0 0 7.16344 0 16C0 24.8366 7.16344 32 16 32Z" fill="white"/>
<path d="M20 21.7461C18.9038 21.7461 18 22.6307 18 23.7461C18 24.8422 18.8846 25.7461 20 25.7461C21.0962 25.7461 22 24.8615 22 23.7461C21.9808 22.6499 21.0962 21.7461 20 21.7461Z" fill="#87705E"/>
<path d="M24.3028 10.867C24.2602 10.867 24.1962 10.8454 24.1322 10.8454H10.693L10.4797 9.40338C10.3517 8.45636 9.54111 7.74609 8.58117 7.74609H6.85328C6.38398 7.74609 6 8.13351 6 8.60702C6 9.08053 6.38398 9.46795 6.85328 9.46795H8.58117C8.68783 9.46795 8.77316 9.55404 8.79449 9.66166L10.1171 18.7444C10.2877 19.8852 11.269 20.7461 12.4209 20.7461H21.295C22.4043 20.7461 23.3642 19.9497 23.5989 18.8521L24.9855 11.857C25.0708 11.405 24.7722 10.953 24.3028 10.867Z" fill="#87705E"/>
<path d="M11.9697 21.7461C10.828 21.8041 9.96192 22.7316 10.0013 23.8331C10.0407 24.8959 10.9265 25.7461 12.0091 25.7461H12.0485C13.1705 25.6881 14.0563 24.7606 13.9972 23.6591C13.9578 22.5963 13.0524 21.7461 11.9697 21.7461Z" fill="#87705E"/>
</svg>
