<svg width="32" height="32" viewBox="0 0 32 32" fill="none" xmlns="http://www.w3.org/2000/svg">
<path d="M16 32C24.8366 32 32 24.8366 32 16C32 7.16344 24.8366 0 16 0C7.16344 0 0 7.16344 0 16C0 24.8366 7.16344 32 16 32Z" fill="white"/>
<path d="M15.9984 14.4467C18.0224 14.4467 19.6631 12.8059 19.6631 10.7819C19.6631 8.75796 18.0224 7.11719 15.9984 7.11719C13.9744 7.11719 12.3336 8.75796 12.3336 10.7819C12.3336 12.8059 13.9744 14.4467 15.9984 14.4467Z" fill="#7E6858"/>
<path d="M23.6614 22.8802H8.33838C8.33838 18.6516 11.7651 15.2188 15.9999 15.2188C20.2284 15.2188 23.6614 18.6516 23.6614 22.8802Z" fill="#7E6858"/>
</svg>
