<svg width="175" height="112" viewBox="0 0 175 112" fill="none" xmlns="http://www.w3.org/2000/svg">
<path d="M6.24 84.4V93.6H20.6V96.52H6.24V108H3.24V81.52H22.36V84.4H6.24ZM40.9344 104.8C39.3344 107.147 36.9477 108.32 33.7744 108.32C30.8944 108.32 28.5477 107.32 26.7344 105.32C24.9744 103.347 24.0944 100.907 24.0944 98C24.0944 95.0933 24.9744 92.6533 26.7344 90.68C28.5477 88.68 30.961 87.68 33.9744 87.68C36.9877 87.68 39.3077 88.8667 40.9344 91.24V88H43.9344V108H40.9344V104.8ZM34.1744 105.6C36.3344 105.6 38.041 104.853 39.2944 103.36C40.4944 101.947 41.0944 100.16 41.0944 98C41.0944 95.84 40.4944 94.0533 39.2944 92.64C38.041 91.1467 36.3344 90.4 34.1744 90.4C32.041 90.4 30.3077 91.1467 28.9744 92.64C27.721 94.0533 27.0944 95.84 27.0944 98C27.0944 100.16 27.721 101.947 28.9744 103.36C30.3077 104.853 32.041 105.6 34.1744 105.6ZM60.8834 93.36C60.6168 91.28 58.9368 90.24 55.8434 90.24C52.7768 90.24 51.2434 91.2 51.2434 93.12C51.2434 93.92 51.5634 94.5333 52.2034 94.96C52.8701 95.36 53.6968 95.6933 54.6834 95.96C55.6701 96.2267 56.7368 96.48 57.8834 96.72C59.0568 96.9333 60.1368 97.2533 61.1234 97.68C62.1101 98.08 62.9234 98.64 63.5634 99.36C64.2301 100.08 64.5634 101.067 64.5634 102.32C64.5634 104.267 63.8301 105.76 62.3634 106.8C60.8968 107.813 58.9101 108.32 56.4034 108.32C53.7368 108.32 51.6168 107.653 50.0434 106.32C48.6034 105.147 47.8301 103.613 47.7234 101.72H50.8434C51.0301 103.56 52.0701 104.8 53.9634 105.44C54.6568 105.653 55.3368 105.76 56.0034 105.76C56.6968 105.76 57.3368 105.72 57.9234 105.64C58.5101 105.56 59.0834 105.413 59.6434 105.2C60.9234 104.693 61.5634 103.827 61.5634 102.6C61.5634 101.773 61.2301 101.147 60.5634 100.72C59.9234 100.267 59.1101 99.9067 58.1234 99.64C57.1368 99.3467 56.0568 99.0933 54.8834 98.88C53.7368 98.64 52.6701 98.32 51.6834 97.92C50.6968 97.52 49.8701 96.9733 49.2034 96.28C48.5634 95.5867 48.2434 94.6267 48.2434 93.4C48.2434 91.5867 48.8968 90.1867 50.2034 89.2C51.5368 88.1867 53.4968 87.68 56.0834 87.68C58.5368 87.68 60.4701 88.2667 61.8834 89.44C63.0568 90.4267 63.7368 91.7333 63.9234 93.36H60.8834ZM70.5803 108V90.64H66.5003V88H70.5803V80.84H73.5803V88H78.1803V90.64H73.5803V108H70.5803ZM93.0719 81.52C94.6452 81.52 96.1652 81.8267 97.6319 82.44C99.0985 83.0267 100.392 83.8933 101.512 85.04C103.992 87.5733 105.232 90.8133 105.232 94.76C105.232 98.7067 103.992 101.947 101.512 104.48C100.392 105.627 99.0985 106.507 97.6319 107.12C96.1652 107.707 94.6452 108 93.0719 108H81.9119V81.52H93.0719ZM92.9519 105.16C95.7252 105.16 97.9785 104.133 99.7119 102.08C101.392 100.107 102.232 97.6667 102.232 94.76C102.232 91.8533 101.392 89.4133 99.7119 87.44C97.9785 85.3867 95.7252 84.36 92.9519 84.36H84.9119V105.16H92.9519ZM119.996 87.68V90.68H119.636C117.476 90.68 115.716 91.5467 114.356 93.28C113.076 94.9333 112.436 96.9067 112.436 99.2V108H109.436V88H112.436V92.92C113.076 90.84 114.463 89.3067 116.596 88.32C117.476 87.8933 118.543 87.68 119.796 87.68H119.996ZM123.225 88H126.225V108H123.225V88ZM126.345 80.72V84.64H123.105V80.72H126.345ZM134.428 88V91.12C135.148 90.16 136.028 89.3467 137.068 88.68C138.108 88.0133 139.295 87.68 140.628 87.68C141.961 87.68 143.108 87.8667 144.068 88.24C145.028 88.6133 145.868 89.1733 146.588 89.92C148.241 91.5467 149.068 93.6933 149.068 96.36V108H146.068V96.44C146.068 94.6 145.548 93.1333 144.508 92.04C143.468 90.9467 142.121 90.4 140.468 90.4C138.788 90.4 137.361 90.96 136.188 92.08C135.015 93.2267 134.428 94.6933 134.428 96.48V108H131.428V88H134.428ZM162.884 95.88L171.524 108H167.844L160.844 97.96L157.084 101.68V108H154.084V80H157.084V97.92L166.724 88H170.924L162.884 95.88Z" fill="white"/>
<path d="M53 28.7578C53 50.9743 66.2438 69.0009 82.5804 69.0009C98.9171 69.0009 112.144 50.9743 112.144 28.7578H53Z" stroke="white" stroke-width="3" stroke-miterlimit="10"/>
<path d="M103.326 68.998H62.7724" stroke="white" stroke-width="3" stroke-miterlimit="10"/>
<path d="M110.187 68.998H106.271" stroke="white" stroke-width="3" stroke-miterlimit="10"/>
<path d="M111.289 38.4026C111.289 38.4026 117.541 33.1295 120.502 37.1967C123.463 41.2639 122.69 50.6247 112.144 54.7328C106.041 57.1037 103.326 57.4102 103.326 57.4102" stroke="white" stroke-width="3" stroke-miterlimit="10"/>
<path d="M75.5226 23.5651V14.8379" stroke="white" stroke-width="3" stroke-miterlimit="10"/>
<path d="M82.1691 24.015V0" stroke="white" stroke-width="3" stroke-miterlimit="10"/>
<path d="M89.4409 23.5642V11.9961" stroke="white" stroke-width="3" stroke-miterlimit="10"/>
<path d="M75.5226 11.9958V10.1973" stroke="white" stroke-width="3" stroke-miterlimit="10"/>
</svg>
